<svg xmlns="http://www.w3.org/2000/svg" viewBox="0 0 164.73 164.11"><defs><style>.cls-1{fill:#39a6b2;}</style></defs><title>Asset 5</title><g id="Layer_2" data-name="Layer 2"><g id="Layer_2-2" data-name="Layer 2"><path class="cls-1" d="M162,147.64H2.75A2.75,2.75,0,0,0,0,150.38v11a2.75,2.75,0,0,0,2.75,2.74H162a2.75,2.75,0,0,0,2.75-2.74v-11A2.75,2.75,0,0,0,162,147.64Zm-2.74,11H5.49v-5.49H159.24Z"/><path class="cls-1" d="M61.15,34.3a2.39,2.39,0,0,0-.14.43,15.72,15.72,0,0,0-2.53-1.84,2.75,2.75,0,0,0-3.72.94L34.48,67h0L21.39,88.41l-3.46-2a2.73,2.73,0,0,0-3.76,1l0,0-2.78,4.8a8.26,8.26,0,0,0,2.93,11.2l64.34,38.23A24.72,24.72,0,0,0,91,144.89h60a8.24,8.24,0,0,0,8.24-8.23v-5.5a2.75,2.75,0,0,0-2.75-2.74h-2.8a24.68,24.68,0,0,0-2.39-9.23l-.12-.22A24.71,24.71,0,0,0,134,105.66l-21.34-4.39a8.38,8.38,0,0,0-.47-1l-16-27.62L136.89,4.13a2.74,2.74,0,0,0-4.72-2.8L100.91,54.08,67.43,34.76,85.13,4.1a2.75,2.75,0,0,0-4.76-2.74L61.73,33.65A3,3,0,0,0,61.15,34.3ZM37.78,72.14a30.29,30.29,0,0,1,12.13,33.22L26.11,91.22Zm116,64.52A2.75,2.75,0,0,1,151,139.4H91a19.14,19.14,0,0,1-9.58-2.56L17.1,98.63a2.74,2.74,0,0,1-1-3.73l1.37-2.4,66.6,39.57A13.67,13.67,0,0,0,91,133.91h62.79Zm-21.63-8.24a8.23,8.23,0,0,1,7.71-5.49h7.09a19.15,19.15,0,0,1,1.21,5.49ZM110,106.33,132.91,111a19.09,19.09,0,0,1,10.73,6.4h-3.81a13.75,13.75,0,0,0-13.4,11H91a8.13,8.13,0,0,1-4.08-1.1L54.75,108.23A35.77,35.77,0,0,0,40.63,67.47L57.86,39.29c4.18,4.25,2.59,10.87,1.93,13a8.16,8.16,0,0,0,3.49,9.3L82,73.38a10.62,10.62,0,0,0,.15,7.45l0,.08v0h0a8.44,8.44,0,0,0,.68,1.46L93,100a8.18,8.18,0,0,0,5.47,4l11.39,2.35ZM90.7,74.06h0l3.44,6-4.75,2.74-1.83-3.17a4.08,4.08,0,0,1-.32-.71,5.46,5.46,0,0,1,.58-5.06,5.12,5.12,0,0,1,1.76-1.67h0Zm1.44,13.45,4.74-2.74,2.2,3.78L94.34,91.3Zm7.41,11a2.72,2.72,0,0,1-1.8-1.31l-.69-1.19,4.75-2.75,3.74,6.48ZM98.1,58.79l-5,8.45L93,67a2.75,2.75,0,0,0-3.74-1l-2.41,1.37A11.49,11.49,0,0,0,85,68.76L66.2,56.92a2.64,2.64,0,0,1-1.18-3,19.85,19.85,0,0,0-.42-14.27l.08-.14Z"/><path class="cls-1" d="M13.73,26.84H54.91a2.75,2.75,0,0,0,0-5.5H13.73a2.75,2.75,0,0,0,0,5.5Z"/><path class="cls-1" d="M2.75,26.84H5.49a2.75,2.75,0,0,0,0-5.5H2.75a2.75,2.75,0,0,0,0,5.5Z"/><path class="cls-1" d="M41.18,43.31a2.75,2.75,0,1,0,0-5.49H24.71a2.75,2.75,0,1,0,0,5.49Z"/><path class="cls-1" d="M11,43.31h2.75a2.75,2.75,0,0,0,0-5.49H11a2.75,2.75,0,0,0,0,5.49Z"/><path class="cls-1" d="M33,10.36h30.2a2.75,2.75,0,0,0,0-5.49H33a2.75,2.75,0,1,0,0,5.49Z"/><path class="cls-1" d="M19.22,10.36H22a2.75,2.75,0,1,0,0-5.49H19.22a2.75,2.75,0,1,0,0,5.49Z"/><path class="cls-1" d="M16.47,128.42a2.75,2.75,0,0,0,0,5.49h22a2.75,2.75,0,0,0,0-5.49Z"/><path class="cls-1" d="M2.75,133.91H5.49a2.75,2.75,0,1,0,0-5.49H2.75a2.75,2.75,0,1,0,0,5.49Z"/><path class="cls-1" d="M2.75,70.76H16.47a2.75,2.75,0,1,0,0-5.49H2.75a2.75,2.75,0,1,0,0,5.49Z"/><path class="cls-1" d="M2.75,109.2H5.49a2.75,2.75,0,1,0,0-5.49H2.75a2.75,2.75,0,1,0,0,5.49Z"/></g></g></svg>