<svg xmlns="http://www.w3.org/2000/svg" viewBox="0 0 164.73 153.75"><defs><style>.cls-1{fill:#39a6b2;}</style></defs><title>Asset 6</title><g id="Layer_2" data-name="Layer 2"><g id="Layer_2-2" data-name="Layer 2"><path class="cls-1" d="M57.66,63.15a2.59,2.59,0,0,0,2.74,2.74h43.93a2.59,2.59,0,0,0,2.74-2.74V19.22a2.59,2.59,0,0,0-2.74-2.75H60.4a2.59,2.59,0,0,0-2.74,2.75ZM63.15,22h38.43V60.4H63.15Z"/><path class="cls-1" d="M162,27.46H140a2.58,2.58,0,0,0-2.74,2.74V43.93a4,4,0,0,0,.54,1.65l5,7.41V70l-9.89-4.12a3,3,0,0,0-2.19,0l-10.44,5.49H44.48L34,66.17a2.94,2.94,0,0,0-2.19,0L22,70V53l4.95-7.41a4,4,0,0,0,.55-1.65V30.2a2.59,2.59,0,0,0-2.75-2.74h-22A2.59,2.59,0,0,0,0,30.2V90.6a2.6,2.6,0,0,0,2.75,2.75H44.48l10.43,58.2a2.68,2.68,0,0,0,2.75,2.2h49.41a2.68,2.68,0,0,0,2.75-2.2l10.43-58.2H162a2.6,2.6,0,0,0,2.75-2.75V30.2A2.59,2.59,0,0,0,162,27.46ZM142.77,33h16.47V49.42H146.88l-4.11-6.32ZM5.49,33H22V43.1l-4.11,6.32H5.49Zm0,54.91V54.91h11V74.13a2.59,2.59,0,0,0,2.75,2.74,1.69,1.69,0,0,0,1.1-.27L33,71.66l8.51,4.39,1.92,11.81Zm99.39,60.4h-45L47.22,76.87h70.29Zm54.36-60.4H121.35l1.92-11.81,8.51-4.39,12.63,4.94A2.64,2.64,0,0,0,148,75c0-.27.28-.55.28-1.1V54.64h11V87.86Z"/><polygon class="cls-1" points="85.11 107.08 85.11 82.36 79.62 82.36 79.62 107.08 57.66 107.08 57.66 112.57 107.08 112.57 107.08 107.08 85.11 107.08"/><path class="cls-1" d="M82.37,118.06c-12.63,0-18.13,12.35-19.22,18.67l5.49.82c0-.55,2.19-11.81,11-13.73v19h5.49v-19c8.79,1.92,11,13.46,11,13.73l5.49-.82C100.49,130.41,95,118.06,82.37,118.06Z"/><rect class="cls-1" x="71.38" y="32.95" width="5.49" height="5.49"/><rect class="cls-1" x="87.86" y="32.95" width="5.49" height="5.49"/><path class="cls-1" d="M82.37,49.42a5.21,5.21,0,0,1-5.5-4.94v-.55H71.38a11,11,0,0,0,22,0H87.86a5.21,5.21,0,0,1-5,5.49Z"/><path class="cls-1" d="M162,109.82a8.09,8.09,0,0,1-8.23-8.24,2.75,2.75,0,0,0-5.49,0,8.09,8.09,0,0,1-8.24,8.24,2.75,2.75,0,0,0,0,5.49,8.09,8.09,0,0,1,8.24,8.24,2.75,2.75,0,0,0,5.49,0,8.09,8.09,0,0,1,8.23-8.24,2.75,2.75,0,1,0,0-5.49Zm-11,5.49a12.71,12.71,0,0,0-2.74-2.74,13,13,0,0,0,2.74-2.75,13.28,13.28,0,0,0,2.75,2.75A13,13,0,0,0,151,115.31Z"/><path class="cls-1" d="M27.46,151a2.59,2.59,0,0,0,2.74,2.75A2.6,2.6,0,0,0,33,151a8.09,8.09,0,0,1,8.23-8.23,2.75,2.75,0,1,0,0-5.49A8.09,8.09,0,0,1,33,129a2.6,2.6,0,0,0-2.75-2.75A2.59,2.59,0,0,0,27.46,129a8.09,8.09,0,0,1-8.24,8.24,2.75,2.75,0,1,0,0,5.49A8.09,8.09,0,0,1,27.46,151Zm2.74-13.72A13,13,0,0,0,33,140a12.81,12.81,0,0,0-2.75,2.75A13,13,0,0,0,27.46,140,13.18,13.18,0,0,0,30.2,137.28Z"/><path class="cls-1" d="M33,16.47a8.09,8.09,0,0,1,8.23,8.24,2.75,2.75,0,1,0,5.49,0,8.09,8.09,0,0,1,8.24-8.24,2.6,2.6,0,0,0,2.75-2.74A2.6,2.6,0,0,0,54.91,11a8.09,8.09,0,0,1-8.24-8.23,2.75,2.75,0,1,0-5.49,0A8.09,8.09,0,0,1,33,11a2.6,2.6,0,0,0-2.75,2.75A2.6,2.6,0,0,0,33,16.47Zm11-5.49a13.23,13.23,0,0,0,2.74,2.75,12.94,12.94,0,0,0-2.74,2.74,13,13,0,0,0-2.75-2.74A13.28,13.28,0,0,0,43.93,11Z"/></g></g></svg>