<svg xmlns="http://www.w3.org/2000/svg" viewBox="0 0 164.73 164.5"><defs><style>.cls-1{fill:#39a6b2;}</style></defs><title>Asset 4</title><g id="Layer_2" data-name="Layer 2"><g id="Layer_2-2" data-name="Layer 2"><circle class="cls-1" cx="69.66" cy="58.04" r="5.17"/><circle class="cls-1" cx="55.3" cy="58.04" r="5.17"/><circle class="cls-1" cx="40.95" cy="58.04" r="5.17"/><path class="cls-1" d="M158,146.86A90.77,90.77,0,0,1,145.8,142q1.37-1,2.64-2.19c10.51-9.27,16.29-21.73,16.29-35.07,0-13.5-5.9-26.15-16.63-35.62A58.17,58.17,0,0,0,109.45,54.9h-.25a45.84,45.84,0,0,0,.39-5.88c0-13.34-5.78-25.79-16.28-35.07A57.23,57.23,0,0,0,55.28,0h0A58.17,58.17,0,0,0,16.63,14.25C5.9,23.72,0,36.37,0,49.87,0,63.21,5.78,75.67,16.29,85c.85.75,1.73,1.48,2.64,2.18A90.61,90.61,0,0,1,6.73,92,9,9,0,0,0,9.3,109.6h.57a289.48,289.48,0,0,0,45.31-7c0,.44,0,.88,0,1.32,0,13.46,5.87,26.08,16.53,35.54a46.56,46.56,0,0,0,4.15,3.32l.32.23.08.06c6,4.24,16.36,10.12,31.89,14.06a286.22,286.22,0,0,0,46.75,7.35l.57,0A9,9,0,0,0,158,146.86ZM54.4,93.51a280,280,0,0,1-45.09,7.08s18-5.36,26.71-14.12a45.52,45.52,0,0,1-13.77-8.28C4.46,62.48,4.61,36.88,22.59,21A49.42,49.42,0,0,1,55.28,9,48.39,48.39,0,0,1,87.34,20.7c10.74,9.49,14.92,22.57,12.61,35a56.12,56.12,0,0,0-28.53,13.2A47.51,47.51,0,0,0,56.5,92.93Zm55.93,54.89c-14.67-3.72-24.12-9.29-28.89-12.67l-.36-.25a33.94,33.94,0,0,1-3.35-2.69c-18-15.88-18.13-41.48-.35-57.19a48.43,48.43,0,0,1,32.07-11.7,49.43,49.43,0,0,1,32.69,12c18,15.87,18.13,41.48.34,57.19a45.69,45.69,0,0,1-13.78,8.28c8.69,8.75,26.72,14.12,26.72,14.12A279.42,279.42,0,0,1,110.33,148.4Z"/><circle class="cls-1" cx="95.07" cy="112.94" r="5.17"/><circle class="cls-1" cx="109.43" cy="112.94" r="5.17"/><circle class="cls-1" cx="123.78" cy="112.94" r="5.17"/></g></g></svg>