<svg xmlns="http://www.w3.org/2000/svg" viewBox="0 0 164.73 130.92"><defs><style>.cls-1{fill:#39a6b2;}</style></defs><title>Asset 2</title><g id="Layer_2" data-name="Layer 2"><g id="Layer_2-2" data-name="Layer 2"><path class="cls-1" d="M163.69,109.93H99.88a.75.75,0,0,0-.69.69v2.6a2.92,2.92,0,0,1-3,3H68.67a3,3,0,0,1-3-3v-2.42a.73.73,0,0,0-.69-.69H1a1.12,1.12,0,0,0-1,1v10.58a9.25,9.25,0,0,0,9.19,9.19H155.54a9.26,9.26,0,0,0,9.19-9.19V111.15a1.16,1.16,0,0,0-1-1.22Z"/><path class="cls-1" d="M20.63,102.31H143.92a8,8,0,0,0,8-8V17.69A17.76,17.76,0,0,0,134.22,0H30.35A17.76,17.76,0,0,0,12.66,17.69V94.16a8.11,8.11,0,0,0,8,8.15Zm8.16-84.63a1.54,1.54,0,0,1,1.55-1.55h104a1.55,1.55,0,0,1,1.56,1.55v68.5H28.79Z"/><path class="cls-1" d="M69.88,51.67h-8A11.46,11.46,0,0,0,50.46,61.73l-1.05,9.36a2.33,2.33,0,0,0,1.91,2.61,67.43,67.43,0,0,0,14.74,1.55A68.05,68.05,0,0,0,80.8,73.7a2.49,2.49,0,0,0,1.91-2.61L81.32,61.9A11.58,11.58,0,0,0,69.88,51.67Z"/><path class="cls-1" d="M76.64,38A10.75,10.75,0,1,1,65.89,27.22,10.75,10.75,0,0,1,76.64,38"/><path class="cls-1" d="M114.27,47h-8.33V38.66a1.18,1.18,0,0,0-1.21-1.21H98.66a1.18,1.18,0,0,0-1.21,1.21V47H89.12a1.18,1.18,0,0,0-1.21,1.21v6.07a1.18,1.18,0,0,0,1.21,1.21h8.33V63.8A1.19,1.19,0,0,0,98.66,65h6.07a1.19,1.19,0,0,0,1.21-1.22V55.48h8.33a1.18,1.18,0,0,0,1.21-1.21V48.2A1.17,1.17,0,0,0,114.27,47Z"/></g></g></svg>